<svg xmlns="http://www.w3.org/2000/svg" viewBox="0 0 128 128">
  <rect width="128" height="128" rx="16" fill="#050505"/>
  <g transform="translate(10.7, 93.8) scale(1.148)">
    <path d="M14.20 8.30L14.20 8.30Q10.90 8.30 7.90 7.20Q4.90 6.10 3 3.70Q1.10 1.30 1.10-2.40L1.10-2.40Q1.10-3.30 1.55-4.05Q2-4.80 2.40-4.80L2.40-4.80Q3.20-4.80 3.20-2.40L3.20-2.40Q3.20 1 6.10 2.90L6.10 2.90Q8.40 4.40 12.30 4.40L12.30 4.40Q16.20 4.40 20.40 3Q24.60 1.60 28.40-1L28.40-1Q32.90-4 38.45-9.65Q44-15.30 50-22L50-22Q45.20-22.50 40.45-23.10Q35.70-23.70 30.90-23.70L30.90-23.70Q27.70-23.70 24.50-23.05Q21.30-22.40 18.70-20.60Q16.10-18.80 14.80-15.30L14.80-15.30Q14.70-14.90 14.55-14.40Q14.40-13.90 14.40-13.40L14.40-13.40Q14.40-12.40 14.90-11.60L14.90-11.60Q15.10-11 15.10-10.90L15.10-10.90Q15.10-10 14.30-10L14.30-10Q13.60-10 13.20-10.70L13.20-10.70Q12.20-12.50 12.20-15.30L12.20-15.30Q12.20-20.60 14.15-23.40Q16.10-26.20 19.40-27.20Q22.70-28.20 26.50-28.20L26.50-28.20Q28.20-28.20 30.05-28.05Q31.90-27.90 33.70-27.70L33.70-27.70Q38.10-27.30 42.80-26.35Q47.50-25.40 52.20-24.40L52.20-24.40Q57.40-30.50 62.45-36.70Q67.50-42.90 71.90-48.45Q76.30-54 79.40-58L79.40-58Q79.50-58.30 79.80-58.40L79.80-58.40Q80-58.60 80.10-58.60L80.10-58.60Q81.20-59.20 82.90-59.65Q84.60-60.10 85.20-60.10L85.20-60.10Q86.20-60.10 86.20-59L86.20-59Q86.20-58.70 85.70-57.90L85.70-57.90Q80.70-49.40 77.15-40.50Q73.60-31.60 70.90-22.20L70.90-22.20L70.70-21.50Q71.30-21.50 71.95-21.45Q72.60-21.40 73.10-21.40L73.10-21.40Q77.40-21.10 80.40-22.30L80.40-22.30Q82.60-23.10 83.40-24.60L83.40-24.60Q83.70-25 83.90-25L83.90-25Q84.40-25 84.60-24.45Q84.80-23.90 84.50-23.40L84.50-23.40Q83.40-21.50 80.60-20.60L80.60-20.60Q79-19.90 76.95-19.70Q74.90-19.50 72.70-19.60L72.70-19.60L72.10-19.60L70.90-19.70L70.30-19.70Q68.80-14.20 68.20-8.30L68.20-8.30Q68.10-7.80 68.10-7.35Q68.10-6.90 68.10-6.40L68.10-6.40Q68.10-0.70 71.20-0.70L71.20-0.70Q73.20-0.70 75.95-2.50Q78.70-4.30 81.55-6.90Q84.40-9.50 86.70-12.05Q89-14.60 90.10-16.10L90.10-16.10Q90.30-16.30 90.70-16.30L90.70-16.30Q91.70-16.30 91.30-15.20L91.30-15.20Q91.10-14.90 89.60-12.85Q88.10-10.80 85.50-7.95Q82.90-5.10 79.40-2.30L79.40-2.30Q76.60-0.10 73.85 0.55Q71.10 1.20 69.70 1.20L69.70 1.20Q66.90 1.20 65.25-1.35Q63.60-3.90 63.60-7.90L63.60-7.90Q63.60-10.80 64.20-13.90Q64.80-17 65.60-20.10L65.60-20.10Q62.70-20.40 59.70-20.75Q56.70-21.10 53.70-21.50L53.70-21.50Q47.70-14.20 41.75-7.85Q35.80-1.50 30.60 2.40L30.60 2.40Q26.70 5.20 22.55 6.75Q18.40 8.30 14.20 8.30ZM66-22L66-22Q67.80-29 70.25-36.05Q72.70-43.10 75.10-48.90L75.10-48.90L75.60-50.10Q71.30-44.10 66.15-37.30Q61-30.50 55.70-23.80L55.70-23.80Q58.30-23.30 60.90-22.85Q63.50-22.40 66-22Z" fill="#DC2626"/>
  </g>
</svg>
